<?xml version="1.0" encoding="UTF-8" standalone="no"?>
<!-- Created with Inkscape (http://www.inkscape.org/) -->

<svg
   width="135.91992mm"
   height="157.82266mm"
   viewBox="0 0 135.91992 157.82266"
   version="1.1"
   id="svg8"
   inkscape:version="1.2.2 (732a01da63, 2022-12-09)"
   sodipodi:docname="logo-icownect.svg"
   xmlns:inkscape="http://www.inkscape.org/namespaces/inkscape"
   xmlns:sodipodi="http://sodipodi.sourceforge.net/DTD/sodipodi-0.dtd"
   xmlns="http://www.w3.org/2000/svg"
   xmlns:svg="http://www.w3.org/2000/svg"
   xmlns:rdf="http://www.w3.org/1999/02/22-rdf-syntax-ns#"
   xmlns:cc="http://creativecommons.org/ns#"
   xmlns:dc="http://purl.org/dc/elements/1.1/">
  <defs
     id="defs2" />
  <sodipodi:namedview
     id="base"
     pagecolor="#ffffff"
     bordercolor="#666666"
     borderopacity="1.0"
     inkscape:pageopacity="0.0"
     inkscape:pageshadow="2"
     inkscape:zoom="0.70710678"
     inkscape:cx="-282.13561"
     inkscape:cy="182.43355"
     inkscape:document-units="mm"
     inkscape:current-layer="layer1"
     showgrid="false"
     showguides="true"
     inkscape:guide-bbox="true"
     fit-margin-top="0"
     fit-margin-left="0"
     fit-margin-right="0"
     fit-margin-bottom="0"
     inkscape:window-width="3840"
     inkscape:window-height="1009"
     inkscape:window-x="1912"
     inkscape:window-y="-8"
     inkscape:window-maximized="1"
     inkscape:showpageshadow="0"
     inkscape:pagecheckerboard="1"
     inkscape:deskcolor="#d1d1d1" />
  <metadata
     id="metadata5">
    <rdf:RDF>
      <cc:Work
         rdf:about="">
        <dc:format>image/svg+xml</dc:format>
        <dc:type
           rdf:resource="http://purl.org/dc/dcmitype/StillImage" />
      </cc:Work>
    </rdf:RDF>
  </metadata>
  <g
     inkscape:label="Calque 1"
     inkscape:groupmode="layer"
     id="layer1"
     transform="translate(-42.001407,-24.866168)">
    <g
       id="g17449-1-5"
       transform="matrix(0.32287896,0,0,-0.32287896,-202.37577,281.44299)"
       style="display:inline;fill:#2196f3;fill-opacity:1;stroke:none">
      <path
         style="color:#000000;fill:#2196f3;fill-opacity:1;stroke:none;stroke-linecap:round;-inkscape-stroke:none"
         d="m 1146.1036,309.84961 a 24.375,24.375 0 0 0 -24.375,24.375 v 198.44922 a 24.375,24.375 0 0 0 24.375,24.375 24.375,24.375 0 0 0 24.375,-24.375 V 334.22461 a 24.375,24.375 0 0 0 -24.375,-24.375 z"
         id="path17439-5-9" />
      <path
         style="color:#000000;fill:#2196f3;fill-opacity:1;stroke:none;stroke-linecap:round;-inkscape-stroke:none"
         d="m 927.61558,310.17187 a 18.75,18.75 0 0 0 -18.75,18.75 v 58.37696 a 18.75,18.75 0 0 0 18.75,18.75 18.75,18.75 0 0 0 18.75,-18.75 v -58.37696 a 18.75,18.75 0 0 0 -18.75,-18.75 z"
         id="path17441-6-6" />
      <path
         style="color:#000000;fill:#2196f3;fill-opacity:1;stroke:none;stroke-linecap:round;-inkscape-stroke:none"
         d="m 999.60819,309.92969 a 20.625,20.625 0 0 0 -20.625,20.625 v 86.74218 a 20.625,20.625 0 0 0 20.625,20.625 20.625,20.625 0 0 0 20.62501,-20.625 v -86.74218 a 20.625,20.625 0 0 0 -20.62501,-20.625 z"
         id="path17443-5-0" />
      <path
         style="color:#000000;fill:#2196f3;fill-opacity:1;stroke:none;stroke-width:0.90607;stroke-linecap:round;-inkscape-stroke:none"
         d="m 801.6194,310.66016 a 15,12.314449 0 0 0 -15,12.31445 v 38.29024 a 15,12.314449 0 0 0 15,12.31445 15,12.314449 0 0 0 15,-12.31445 v -38.29024 a 15,12.314449 0 0 0 -15,-12.31445 z"
         id="path17445-8-9" />
      <path
         style="color:#000000;fill:#2196f3;fill-opacity:1;stroke:none;stroke-width:0.967455;stroke-linecap:round;-inkscape-stroke:none"
         d="m 859.80646,310.00781 a 16.875,15.794466 0 0 0 -16.875,15.79447 v 47.90805 a 16.875,15.794466 0 0 0 16.875,15.79447 16.875,15.794466 0 0 0 16.875,-15.79447 v -47.90805 a 16.875,15.794466 0 0 0 -16.875,-15.79447 z"
         id="path17447-5-9" />
      <path
         style="color:#000000;fill:#2196f3;fill-opacity:1;stroke:none;stroke-linecap:round;-inkscape-stroke:none"
         d="m 1073.2742,310.09375 a 22.5,22.5 0 0 0 -22.5,22.5 V 481.9082 a 22.5,22.5 0 0 0 22.5,22.5 22.5,22.5 0 0 0 22.5,-22.5 V 332.59375 a 22.5,22.5 0 0 0 -22.5,-22.5 z"
         id="path17437-9-4" />
    </g>
    <g
       id="g37260-8-7"
       style="display:inline;fill:#2196f3;fill-opacity:1"
       transform="matrix(0.04552547,0,0,-0.04552547,886.53385,317.15575)">
      <path
         style="color:#000000;fill:#2196f3;fill-opacity:1;stroke:none;stroke-linecap:round;-inkscape-stroke:none"
         d="m -17874.43,3742.6426 c -145.623,-0.5296 -298.52,17.5123 -434.599,87.4824 -98.967,50.8874 -192.244,146.3951 -220.096,273.125 -27.852,126.7299 3.45,262.3594 77.77,411.2344 148.639,297.75 480.283,679.1834 1111.908,1231.9707 a 159.57651,159.57651 0 0 0 225.177,-14.9883 159.57651,159.57651 0 0 0 -14.988,-225.1777 c -617.514,-540.4376 -926.654,-914.2192 -1036.547,-1134.3536 -54.946,-110.0671 -57.348,-174.0482 -51.605,-200.1796 5.743,-26.1315 13.359,-36.7382 54.322,-57.8008 81.926,-42.1253 284.417,-57.464 455.494,-44.0371 171.077,13.4268 309.471,43.5254 309.471,43.5254 a 159.57651,159.57651 0 0 0 189.967,-121.8282 159.57651,159.57651 0 0 0 -121.828,-189.9668 c 0,0 -157.68,-34.603 -352.639,-49.9043 -60.925,-4.7816 -125.614,-8.8608 -191.807,-9.1015 z"
         id="path17433-5-9" />
      <path
         style="color:#000000;fill:#2196f3;fill-opacity:1;stroke:none;stroke-linecap:round;-inkscape-stroke:none"
         d="m -17190.928,4872.0254 c -88.131,0 -159.576,71.4448 -159.576,159.5762 0,88.1313 71.445,159.5761 159.576,159.5761 h 1.366 c 88.131,0 159.576,-71.4448 159.576,-159.5761 0,-88.1314 -71.445,-159.5762 -159.576,-159.5762 z"
         id="path17435-9-9"
         sodipodi:nodetypes="sssssss" />
      <g
         id="g17459-5-4"
         transform="translate(-14258.751,988.95734)"
         style="fill:#2196f3;fill-opacity:1;stroke:none">
        <path
           id="path17455-7-0"
           style="color:#000000;fill:#2196f3;fill-opacity:1;stroke:none;stroke-width:1.33333;stroke-linecap:round;-inkscape-stroke:none"
           d="m -20916.258,-7614.8027 a 212.76867,212.76867 0 0 0 -269.844,133.1367 c 0,0 -43.186,139.3943 -233.132,305.5078 -189.946,166.1135 -518.112,344.707 -1113.077,344.707 -187.386,0 -355.292,-18.0614 -505.433,-48.3164 l -381.039,337.6504 c 248.702,81.8885 543.559,136.2031 886.472,136.2031 683.153,0 1128.837,-218.7202 1393.209,-449.9218 264.373,-231.2016 355.979,-489.1231 355.979,-489.1231 a 212.76867,212.76867 0 0 0 -133.135,-269.8437 z m -3513.156,21.9043 a 212.76867,212.76867 0 0 0 -65.482,293.6894 c 0,0 153.925,238.1168 470.404,457.957 101.528,70.5258 221.278,140.5621 359.527,203.2227 l 372.457,-309.291 c -202.157,-67.3141 -363.18,-155.8753 -489.211,-243.4219 -255.491,-177.476 -354.008,-336.6738 -354.008,-336.6738 a 212.76867,212.76867 0 0 0 -293.687,-65.4824 z"
           transform="matrix(0.75000002,0,0,-0.75000002,14258.751,-348.95733)" />
      </g>
    </g>
  </g>
</svg>
